# xmcd
#
# Track frame offsets: 
#        150
#        13133
#        23609
#        37139
#        52933
#        66549
#        80567
#        94744
#        107309
#        116718
#        132161
#        147860
#        166361
#        180669
#        199918
#
# Disc length: 2855 seconds
#
# Revision: 0
# Processed by: cddbd v1.5PL3 Copyright (c) Steve Scherf et al.
# Submitted via: ExactAudioCopy v0.95a5
#
DISCID=cd0b250f
DTITLE=Flatland - Flatland Breakdown
DYEAR=2002
DGENRE=Bluegrass
TTITLE0=Flatland Breakdown
TTITLE1=Look For Me
TTITLE2=Love Of The Mountain
TTITLE3=I'll Breakout Again Tonight
TTITLE4=Using My Bible For A Roadmap
TTITLE5=Faded Love
TTITLE6=I Wounder Where You Are Tonight
TTITLE7=Somewhere Between
TTITLE8=Back To THe Old Home
TTITLE9=House Of Gold
TTITLE10=Wildwood Flower
TTITLE11=Shelly's Winter Love
TTITLE12=Fox On The Run
TTITLE13=Another Night
TTITLE14=Far Side Bank Of Jordan
EXTD=
EXTT0=
EXTT1=
EXTT2=
EXTT3=
EXTT4=
EXTT5=
EXTT6=
EXTT7=
EXTT8=
EXTT9=
EXTT10=
EXTT11=
EXTT12=
EXTT13=
EXTT14=
PLAYORDER=
